<?xml version="1.0" encoding="UTF-8"?>
<svg width="752pt" height="752pt" version="1.1" viewBox="0 0 752 752" xmlns="http://www.w3.org/2000/svg">
 <path d="m352.32 177.1-75.773 30.34 170.49 72.961 81.84-32.707-58.16-23.234zm-100.49 40.105-76.07 30.484 176.56 70.594 70-27.973-170.49-73.109zm-88.945 45.879v217.11l179.96 94.715v-239.9zm378.86 0-85.246 34.039v69.41c0.070313 5.0039-4.4688 9.6211-9.4727 9.6211s-9.543-4.6172-9.4727-9.6211v-61.715l-75.773 30.191v239.9l63.195-33.297 78.879-141.93 37.887 68.227v-204.82zm-37.887 150.8-85.246 151.55h170.49l-85.246-151.55zm0 37.887c5.2305 0 9.4727 4.2422 9.4727 9.4727v52.094c0 5.2305-4.2422 9.4727-9.4727 9.4727-5.2305 0-9.4727-4.2422-9.4727-9.4727v-52.094c0-5.2305 4.2383-9.4727 9.4727-9.4727zm0 75.773c6.5391 0 11.84 5.3008 11.84 11.84 0 6.5391-5.3008 11.84-11.84 11.84-6.5391 0-11.84-5.3008-11.84-11.84 0-6.5391 5.3008-11.84 11.84-11.84z"/>
</svg>
